<svg xmlns="http://www.w3.org/2000/svg" width="1458.309" height="331.366" viewBox="0 0 1458.309 331.366">
  <g id="Group_46687" data-name="Group 46687" transform="translate(-367.146 -3777.708)">
    <rect id="Rectangle_4_copy" data-name="Rectangle 4 copy" width="1346" height="1" transform="translate(414 3829)" fill="#e4e9ee"/>
    <rect id="Rectangle_4_copy_2" data-name="Rectangle 4 copy 2" width="1346" height="1" transform="translate(414 3869)" fill="#e4e9ee"/>
    <rect id="Rectangle_4_copy_3" data-name="Rectangle 4 copy 3" width="1346" height="1" transform="translate(414 3910)" fill="#e4e9ee"/>
    <rect id="Rectangle_4_copy_4" data-name="Rectangle 4 copy 4" width="1346" height="1" transform="translate(414 3951)" fill="#e4e9ee"/>
    <rect id="Rectangle_4_copy_5" data-name="Rectangle 4 copy 5" width="1346" height="1" transform="translate(414 3987)" fill="#e4e9ee"/>
    <rect id="Rectangle_4_copy_6" data-name="Rectangle 4 copy 6" width="1346" height="1" transform="translate(414 4028)" fill="#e4e9ee"/>
    <rect id="Rectangle_4_copy_7" data-name="Rectangle 4 copy 7" width="1346" height="1" transform="translate(414 4072)" fill="#e4e9ee"/>
    <text id="_70_60_50_40_30_20_10_0" data-name="70
60
50
40
30
20
10
0" transform="translate(367.146 3793.708)" fill="#1e1e1c" font-size="15" font-family="Poppins-Regular, Poppins"><tspan x="0" y="0">70</tspan><tspan x="0" y="40">60</tspan><tspan x="0" y="80">50</tspan><tspan x="0" y="120">40</tspan><tspan x="0" y="160">30</tspan><tspan x="0" y="200">20</tspan><tspan x="0" y="240">10</tspan><tspan x="0" y="280">0</tspan></text>
    <text id="_1200_1000_900_700_500_300_100_0" data-name="1200
1000
900
700
500
300
100
0" transform="translate(1791.455 3793.708)" fill="#1e1e1c" font-size="15" font-family="Poppins-Regular, Poppins"><tspan x="0" y="0">1200</tspan><tspan x="0" y="40">1000</tspan><tspan x="0" y="80">900</tspan><tspan x="0" y="120">700</tspan><tspan x="0" y="160">500</tspan><tspan x="0" y="200">300</tspan><tspan x="0" y="240">100</tspan><tspan x="0" y="280">0</tspan></text>
    <text id="Apr_24" data-name="Apr 24" transform="translate(407.111 4103.074)" fill="#1e1e1c" font-size="15" font-family="Poppins-Regular, Poppins"><tspan x="0" y="0">Apr 24</tspan></text>
    <text id="May_12" data-name="May 12" transform="translate(662.758 4103.074)" fill="#1e1e1c" font-size="15" font-family="Poppins-Regular, Poppins"><tspan x="0" y="0">May 12</tspan></text>
    <text id="Jun_17" data-name="Jun 17" transform="translate(921.445 4104.074)" fill="#1e1e1c" font-size="15" font-family="Poppins-Regular, Poppins"><tspan x="0" y="0">Jun 17</tspan></text>
    <text id="Jul_29" data-name="Jul 29" transform="translate(1182.162 4104.074)" fill="#1e1e1c" font-size="15" font-family="Poppins-Regular, Poppins"><tspan x="0" y="0">Jul 29</tspan></text>
    <text id="Aug_22" data-name="Aug 22" transform="translate(1435.779 4103.074)" fill="#1e1e1c" font-size="15" font-family="Poppins-Regular, Poppins"><tspan x="0" y="0">Aug 22</tspan></text>
    <text id="Sep_10" data-name="Sep 10" transform="translate(1693.453 4103.074)" fill="#1e1e1c" font-size="15" font-family="Poppins-Regular, Poppins"><tspan x="0" y="0">Sep 10</tspan></text>
    <rect id="Rectangle_6_copy_2" data-name="Rectangle 6 copy 2" width="1" height="283" transform="translate(414 3790)" fill="#e4e9ee"/>
    <rect id="Rectangle_6_copy_3" data-name="Rectangle 6 copy 3" width="1" height="283" transform="translate(1760 3790)" fill="#e4e9ee"/>
    <path id="Shape_507" data-name="Shape 507" d="M441.977,878.726S477.506,1038,491.709,1040s21.28-228.274,42.584-225.274,31.448,179,46.665,179,25.362-115,44.636-116,39.564,171,50.723,171,29.419-54,45.651-55,35.506,58,46.665,59,84.2,0,93.331,0,36.521-118,49.709-118,33.477,58,44.636,58,43.622-115,53.767-115,32.463,55,44.636,54,30.434-54,38.55-55,85.215,178,95.36,177,42.607-178,51.738-180,35.506,123,45.651,123,29.419-27,36.521-26,46.665,84,55.8,84,146.083-1,156.228,0,43.622-151,53.767-153,118.692,125,131.88,126" transform="translate(-21.67 3016)" fill="none" stroke="#11a080" stroke-width="2"/>
  </g>
</svg>
